<?xml version="1.0" encoding="UTF-8" standalone="no"?>
<!-- Created with Inkscape (http://www.inkscape.org/) -->
<svg xmlns="http://www.w3.org/2000/svg" xmlns:svg="http://www.w3.org/2000/svg" version="1.1" id="svg1185" width="682.66669" height="682.66669" viewBox="0 0 682.66669 682.66669">
  <defs id="defs1189">
    <clipPath clipPathUnits="userSpaceOnUse" id="clipPath1199">
      <path d="M 0,512 H 512 V 0 H 0 Z" id="path1197"/>
    </clipPath>
  </defs>
  <mask id="custom"><rect id="bg" x="0" y="0" width="100%" height="100%" fill="white"/><g transform="matrix(1.3333333,0,0,-1.3333333,0,682.66667)"/></mask><g mask="url(#custom)"><g id="g1191" transform="matrix(1.3333333,0,0,-1.3333333,0,682.66667)">
    <g id="g1193">
      <g id="g1195" clip-path="url(#clipPath1199)">
        <g id="g1201" transform="translate(452,433)">
          <path d="m 0,0 c 22.092,0 40,-17.909 40,-40 v -274 c 0,-22.091 -17.908,-40 -40,-40 h -392 c -22.092,0 -40,17.909 -40,40 v 274 c 0,22.091 17.908,40 40,40 z" style="fill:none;stroke:#000000;stroke-width:40;stroke-linecap:butt;stroke-linejoin:miter;stroke-miterlimit:10;stroke-dasharray:none;stroke-opacity:1" id="path1203"/>
        </g>
        <g id="g1205" transform="translate(330,352)">
          <path d="M 0,0 H 82 V -83" style="fill:none;stroke:#000000;stroke-width:40;stroke-linecap:butt;stroke-linejoin:miter;stroke-miterlimit:10;stroke-dasharray:none;stroke-opacity:1" id="path1207"/>
        </g>
        <g id="g1209" transform="translate(181,160)">
          <path d="M 0,0 H -81 V 83" style="fill:none;stroke:#000000;stroke-width:40;stroke-linecap:butt;stroke-linejoin:miter;stroke-miterlimit:10;stroke-dasharray:none;stroke-opacity:1" id="path1211"/>
        </g>
      </g>
    </g>
  </g></g>
</svg>
