<svg id="Layer_1" enable-background="new 0 0 64 64" height="512" viewBox="0 0 64 64" width="512" xmlns="http://www.w3.org/2000/svg"><g><g id="LINE_201_"><g><path d="m56 34c-.512 0-1.023-.195-1.414-.586l-13.436-13.435c-.781-.781-.781-2.047 0-2.828s2.047-.781 2.828 0l13.436 13.435c.781.781.781 2.047 0 2.828-.391.39-.902.586-1.414.586z"/></g></g><g id="LINE_202_"><g><path d="m42.564 47.435c-.512 0-1.023-.195-1.414-.586-.781-.781-.781-2.047 0-2.828l13.436-13.435c.781-.781 2.047-.781 2.828 0s.781 2.047 0 2.828l-13.435 13.435c-.391.39-.903.586-1.415.586z"/></g></g><g id="LINE_203_"><g><path d="m56 34h-38c-1.104 0-2-.896-2-2s.896-2 2-2h38c1.104 0 2 .896 2 2s-.896 2-2 2z"/></g></g><g id="ARC_121_"><g><path d="m10 58c-2.206 0-4-1.794-4-4 0-1.104.896-2 2-2s2 .896 2 2v.003c1.104 0 2 .894 2 1.999s-.896 1.998-2 1.998z"/></g></g><g id="LINE_204_"><g><path d="m24 58h-14c-1.104 0-2-.896-2-2s.896-2 2-2h14c1.104 0 2 .896 2 2s-.896 2-2 2z"/></g></g><g id="LINE_205_"><g><path d="m8 56c-1.104 0-2-.896-2-2v-44c0-1.104.896-2 2-2s2 .896 2 2v44c0 1.104-.896 2-2 2z"/></g></g><g id="ARC_122_"><g><path d="m7.999 12c-1.105 0-1.999-.896-1.999-2 0-2.206 1.794-4 4-4 1.104 0 2 .896 2 2s-.896 2-2 2h-.003c0 1.104-.893 2-1.998 2z"/></g></g><g id="LINE_206_"><g><path d="m24 10h-14c-1.104 0-2-.896-2-2s.896-2 2-2h14c1.104 0 2 .896 2 2s-.896 2-2 2z"/></g></g></g></svg>