<?xml version="1.0" encoding="utf-8"?>
<!-- Generator: Adobe Illustrator 27.7.0, SVG Export Plug-In . SVG Version: 6.00 Build 0)  -->
<svg version="1.1" id="Layer_1" xmlns="http://www.w3.org/2000/svg" xmlns:xlink="http://www.w3.org/1999/xlink" x="0px" y="0px"
	 viewBox="0 0 1010 146.6" style="enable-background:new 0 0 1010 146.6;" xml:space="preserve">
<style type="text/css">
	.st0{fill:#18122A;}
	.st1{fill:#7558EA;}
</style>
<g>
	<g>
		<g>
			<polygon class="st0" points="91.1,109.8 91.1,98.4 77.5,98.4 77.5,112.1 88.8,112.1 93.8,117 31.7,117 31.7,79.7 38.1,86.1 
				38.1,99.4 53.7,99.4 53.7,83.8 40.5,83.8 10.9,54.3 10.9,45.7 0,45.7 0,56.6 8.6,56.6 16.7,64.7 16.7,132 108.7,132 116.6,139.9 
				116.6,146.6 125.6,146.6 125.6,137.6 118.9,137.6 			"/>
			<polygon class="st1" points="146.6,120.6 139.8,113.9 139.8,61.6 118.4,40.1 118.4,13 103.4,13 103.4,25.2 78.3,0 36.9,41.4 
				13.2,17.8 13.2,12.8 6.1,12.8 6.1,20 11,20 31.9,40.9 68.9,77.8 68.9,85.6 78.8,85.6 78.8,75.6 71.1,75.6 47.5,52 78.3,21.2 
				124.9,67.8 124.9,98.9 77.6,51.6 77.6,45.8 69.5,45.8 69.5,53.8 75.4,53.8 115.7,94.1 124.9,103.3 124.9,103.3 139.8,118.3 
				144.3,122.8 144.3,134.6 158.4,134.6 158.4,120.6 			"/>
		</g>
		<g>
			<path class="st0" d="M242.5,51.8v72.6h-16.8V94.7h-33v29.8h-16.8V51.8h16.8v28.6h33V51.8H242.5z"/>
			<path class="st0" d="M269.3,121.6c-4.7-2.5-8.3-5.9-10.9-10.2c-2.6-4.4-3.9-9.3-3.9-14.8s1.3-10.5,3.9-14.8
				c2.6-4.4,6.3-7.8,10.9-10.2c4.7-2.5,9.9-3.7,15.8-3.7s11.1,1.2,15.8,3.7c4.6,2.5,8.3,5.9,10.9,10.2c2.6,4.4,3.9,9.3,3.9,14.8
				s-1.3,10.5-3.9,14.8c-2.6,4.4-6.3,7.8-10.9,10.2c-4.6,2.5-9.9,3.7-15.8,3.7C279.2,125.3,274,124,269.3,121.6z M295.3,107.8
				c2.7-2.8,4-6.6,4-11.3c0-4.7-1.3-8.5-4-11.3s-6.1-4.2-10.2-4.2c-4.2,0-7.6,1.4-10.3,4.2c-2.7,2.8-4,6.6-4,11.3
				c0,4.7,1.3,8.5,4,11.3s6.1,4.2,10.3,4.2C289.3,112,292.7,110.6,295.3,107.8z"/>
			<path class="st0" d="M414.7,74c4.1,4.1,6.2,10.3,6.2,18.5v32h-16.2V95c0-4.4-0.9-7.7-2.8-9.9c-1.8-2.2-4.4-3.3-7.8-3.3
				c-3.8,0-6.8,1.2-9,3.7s-3.3,6.1-3.3,10.9v28h-16.2V95c0-8.8-3.5-13.2-10.6-13.2c-3.7,0-6.7,1.2-8.9,3.7
				c-2.2,2.5-3.3,6.1-3.3,10.9v28h-16.2V68.6H342V75c2.1-2.4,4.6-4.2,7.6-5.4c3-1.2,6.3-1.9,9.9-1.9c3.9,0,7.5,0.8,10.7,2.3
				c3.2,1.6,5.7,3.8,7.7,6.8c2.3-2.9,5.2-5.2,8.7-6.7c3.5-1.6,7.3-2.4,11.5-2.4C405,67.8,410.6,69.8,414.7,74z"/>
			<path class="st0" d="M490.4,101.1h-42.2c0.8,3.5,2.6,6.2,5.4,8.2s6.4,3,10.6,3c2.9,0,5.5-0.4,7.7-1.3s4.3-2.2,6.3-4.1l8.6,9.3
				c-5.3,6-12.9,9-23,9c-6.3,0-11.9-1.2-16.7-3.7c-4.8-2.5-8.6-5.9-11.2-10.2c-2.6-4.4-3.9-9.3-3.9-14.8s1.3-10.4,3.9-14.8
				s6.2-7.8,10.7-10.3s9.6-3.7,15.2-3.7c5.5,0,10.4,1.2,14.8,3.5c4.4,2.4,7.9,5.7,10.4,10.1s3.8,9.5,3.8,15.3
				C490.7,96.9,490.6,98.4,490.4,101.1z M452.5,83.1c-2.5,2.1-4,4.9-4.6,8.5h27.5c-0.6-3.5-2.1-6.3-4.6-8.5
				c-2.5-2.1-5.5-3.2-9.1-3.2C458.1,80,455,81.1,452.5,83.1z"/>
			<path class="st0" d="M505.8,51.8h29.6c7.7,0,14.5,1.5,20.3,4.6c5.9,3.1,10.4,7.4,13.7,12.9s4.9,11.8,4.9,18.8s-1.6,13.3-4.9,18.8
				c-3.3,5.5-7.8,9.8-13.7,12.9s-12.7,4.6-20.3,4.6h-29.6L505.8,51.8L505.8,51.8z M535,117.8c6.4,0,11.9-1.3,16.7-3.8
				s8.5-6,11.1-10.5s3.9-9.6,3.9-15.4s-1.3-10.9-3.9-15.4c-2.6-4.5-6.3-8-11.1-10.5s-10.3-3.8-16.7-3.8h-21.5v59.4H535z"/>
			<path class="st0" d="M634.9,99.4h-45.7c0.4,5.7,2.6,10.3,6.5,13.7c3.9,3.5,8.9,5.2,14.9,5.2c3.4,0,6.5-0.6,9.3-1.8
				c2.8-1.2,5.3-3,7.4-5.3l4.2,4.8c-2.4,2.9-5.4,5.1-9.1,6.6c-3.6,1.5-7.6,2.3-12,2.3c-5.6,0-10.6-1.2-14.9-3.6
				c-4.3-2.4-7.7-5.7-10.1-9.9c-2.4-4.2-3.6-9-3.6-14.3s1.2-10.1,3.5-14.3c2.3-4.2,5.5-7.5,9.5-9.9s8.6-3.5,13.6-3.5
				s9.6,1.2,13.6,3.5c4,2.4,7.2,5.6,9.4,9.8c2.3,4.2,3.4,9,3.4,14.4L634.9,99.4z M595.3,80.8c-3.6,3.4-5.6,7.7-6.1,13.1H628
				c-0.5-5.4-2.5-9.8-6.1-13.1c-3.6-3.4-8-5-13.3-5C603.3,75.8,598.9,77.4,595.3,80.8z"/>
			<path class="st0" d="M649.4,123c-4-1.3-7.2-2.9-9.5-4.8l3.3-5.8c2.3,1.8,5.2,3.3,8.6,4.4c3.5,1.1,7.1,1.7,10.8,1.7
				c5,0,8.7-0.8,11.1-2.3c2.4-1.6,3.6-3.8,3.6-6.6c0-2-0.7-3.6-2-4.7s-3-2-5-2.6s-4.7-1.2-8-1.7c-4.4-0.8-8-1.7-10.7-2.5
				c-2.7-0.9-5-2.3-6.9-4.4s-2.9-4.9-2.9-8.6c0-4.6,1.9-8.3,5.7-11.2c3.8-2.9,9.1-4.4,15.9-4.4c3.5,0,7.1,0.5,10.6,1.4
				s6.4,2.2,8.7,3.7l-3.2,5.9c-4.5-3.1-9.9-4.7-16.1-4.7c-4.7,0-8.3,0.8-10.6,2.5s-3.6,3.8-3.6,6.5c0,2.1,0.7,3.7,2,5
				c1.3,1.2,3,2.2,5,2.8c2,0.6,4.8,1.2,8.3,1.8c4.4,0.8,7.8,1.7,10.5,2.5c2.6,0.8,4.9,2.2,6.7,4.3c1.9,2,2.8,4.8,2.8,8.3
				c0,4.8-2,8.6-6,11.4s-9.5,4.2-16.6,4.2C657.7,125,653.5,124.3,649.4,123z"/>
			<path class="st0" d="M695.5,56.4c-1-1-1.6-2.3-1.6-3.7s0.5-2.6,1.6-3.6c1-1,2.3-1.6,3.8-1.6s2.8,0.5,3.8,1.5s1.6,2.2,1.6,3.6
				c0,1.5-0.5,2.8-1.6,3.8c-1,1-2.3,1.6-3.8,1.6C697.9,57.9,696.6,57.4,695.5,56.4z M695.6,69.9h7.4v54.6h-7.4V69.9z"/>
			<path class="st0" d="M771.5,69.9v47.9c0,9.3-2.3,16.1-6.8,20.6s-11.4,6.7-20.5,6.7c-5.1,0-9.8-0.7-14.4-2.2
				c-4.5-1.5-8.2-3.5-11.1-6.2l3.7-5.6c2.6,2.4,5.8,4.2,9.6,5.5s7.7,2,11.9,2c6.9,0,12-1.6,15.3-4.8s4.9-8.2,4.9-15v-7
				c-2.3,3.5-5.3,6.1-9,7.9s-7.8,2.7-12.3,2.7c-5.1,0-9.8-1.1-14-3.4c-4.2-2.2-7.5-5.4-9.9-9.4s-3.6-8.6-3.6-13.8
				c0-5.1,1.2-9.7,3.6-13.7c2.4-4,5.7-7.1,9.8-9.3c4.1-2.2,8.8-3.3,14-3.3c4.6,0,8.8,0.9,12.6,2.8c3.7,1.9,6.7,4.6,9,8.1V69.9H771.5
				z M754.3,113.3c3.2-1.7,5.7-4.1,7.4-7.1c1.8-3,2.6-6.5,2.6-10.4s-0.9-7.3-2.6-10.3s-4.2-5.4-7.4-7.1c-3.1-1.7-6.7-2.5-10.7-2.5
				c-3.9,0-7.5,0.8-10.6,2.5s-5.6,4-7.4,7.1c-1.8,3-2.6,6.5-2.6,10.4s0.9,7.3,2.6,10.4c1.8,3,4.2,5.4,7.4,7.1
				c3.1,1.7,6.7,2.5,10.6,2.5S751.1,115,754.3,113.3z"/>
			<path class="st0" d="M833.7,75.4c4,4,6.1,9.8,6.1,17.4v31.7h-7.4v-31c0-5.7-1.4-10-4.3-13c-2.8-3-6.9-4.5-12.1-4.5
				c-5.9,0-10.5,1.7-14,5.2c-3.4,3.5-5.1,8.3-5.1,14.5v28.6h-7.4V69.9h7.1V80c2-3.3,4.8-5.9,8.4-7.7c3.6-1.8,7.7-2.8,12.4-2.8
				C824.2,69.4,829.7,71.4,833.7,75.4z"/>
			<path class="st0" d="M859.1,123c-4-1.3-7.2-2.9-9.5-4.8l3.3-5.8c2.3,1.8,5.2,3.3,8.6,4.4c3.5,1.1,7.1,1.7,10.8,1.7
				c5,0,8.7-0.8,11.1-2.3c2.4-1.6,3.6-3.8,3.6-6.6c0-2-0.7-3.6-2-4.7s-3-2-5-2.6s-4.7-1.2-8-1.7c-4.4-0.8-8-1.7-10.7-2.5
				c-2.7-0.9-5-2.3-6.9-4.4s-2.9-4.9-2.9-8.6c0-4.6,1.9-8.3,5.7-11.2c3.8-2.9,9.1-4.4,15.9-4.4c3.5,0,7.1,0.5,10.6,1.4
				s6.4,2.2,8.7,3.7l-3.2,5.9c-4.5-3.1-9.9-4.7-16.1-4.7c-4.7,0-8.3,0.8-10.6,2.5s-3.6,3.8-3.6,6.5c0,2.1,0.7,3.7,2,5
				c1.3,1.2,3,2.2,5,2.8c2,0.6,4.8,1.2,8.3,1.8c4.4,0.8,7.8,1.7,10.5,2.5c2.6,0.8,4.9,2.2,6.7,4.3c1.9,2,2.8,4.8,2.8,8.3
				c0,4.8-2,8.6-6,11.4s-9.5,4.2-16.6,4.2C867.4,125,863.2,124.3,859.1,123z"/>
			<path class="st1" d="M961.5,108.9h-33.7l-6.4,15.6h-17.2l32.4-72.6h16.6l32.5,72.6H968L961.5,108.9z M956.2,96.1l-11.5-27.8
				l-11.5,27.8C933.2,96.1,956.2,96.1,956.2,96.1z"/>
			<path class="st1" d="M993.2,51.8h16.8v72.6h-16.8V51.8z"/>
		</g>
	</g>
</g>
</svg>
